Coordinates
version=1
nRows=32
nColumns=22
inDegrees=yes

Units are S.I. units (second, meters, Newtons, ...)
If the header above contains a line with 'inDegrees', this indicates whether rotational values are in degrees (yes) or radians (no).

endheader
time	pelvis_tilt	pelvis_list	pelvis_rotation	pelvis_tx	pelvis_ty	pelvis_tz	hip_flexion_r	hip_adduction_r	hip_rotation_r	knee_angle_r	ankle_angle_r	subtalar_angle_r	hip_flexion_l	hip_adduction_l	hip_rotation_l	knee_angle_l	ankle_angle_l	subtalar_angle_l	lumbar_extension	lumbar_bending	lumbar_rotation
      0.01000000	      6.20453574	     -3.36860667	      5.05139492	      1.16224757	      0.94361233	     -0.08844663	     -7.24794273	      5.91058008	    -12.33934508	     -9.63869350	     10.53847003	     -2.24612237	     -4.36750350	     -4.64122192	    -10.05267739	    -17.56807979	     22.34767247	     -8.59433724	    -13.29043728	      4.01847236	     -8.70269955
      0.02000000	      6.06332396	     -3.37488292	      5.00475928	      1.16191593	      0.94343250	     -0.08854994	     -7.04790607	      5.87621171	    -12.44849277	     -9.68133067	     10.53025705	     -2.30350458	     -4.18812879	     -4.61977730	    -10.09541876	    -17.58639278	     22.29672628	     -8.61759517	    -13.17905760	      4.02104355	     -8.68170550
      0.03000000	      5.97900583	     -3.38221877	      4.92507333	      1.16160723	      0.94334706	     -0.08863814	     -6.91155674	      5.84027028	    -12.55725640	     -9.72142845	     10.44343010	     -2.32935280	     -4.09687100	     -4.59802992	    -10.18141491	    -17.56930091	     22.27142967	     -8.64231549	    -13.13806661	      4.02695961	     -8.62315191
      0.04000000	      5.82337715	     -3.40057971	      4.85286402	      1.16130652	      0.94313793	     -0.08873694	     -6.69987786	      5.81416292	    -12.63734895	     -9.75596189	     10.41742125	     -2.37619909	     -3.89344493	     -4.58613121	    -10.23525696	    -17.61622427	     22.26692437	     -8.68037458	    -13.00529468	      4.03777551	     -8.57564478
      0.05000000	      5.76059954	     -3.40908478	      4.77578843	      1.16109815	      0.94307336	     -0.08883638	     -6.59622172	      5.78422880	    -12.71644813	     -9.79241970	     10.35417781	     -2.40291382	     -3.82511579	     -4.56767611	    -10.29972280	    -17.61231607	     22.26187289	     -8.69151727	    -12.97235657	      4.04287990	     -8.52784424
      0.06000000	      5.71947440	     -3.41460460	      4.72219553	      1.16099994	      0.94303589	     -0.08897465	     -6.55070401	      5.76371925	    -12.75922089	     -9.77699204	     10.33508554	     -2.41696092	     -3.78678564	     -4.54876586	    -10.33839090	    -17.60294350	     22.26537840	     -8.69060032	    -12.94395122	      4.04941081	     -8.49334284
      0.07000000	      5.68468174	     -3.41544280	      4.66417283	      1.16088233	      0.94300283	     -0.08908190	     -6.47726072	      5.73530176	    -12.75303050	     -9.83383834	     10.30043866	     -2.44162369	     -3.74472793	     -4.52961444	    -10.38790967	    -17.61357292	     22.27532375	     -8.67725342	    -12.93016447	      4.04537367	     -8.48237278
      0.08000000	      5.68076297	     -3.42187081	      4.63963081	      1.16086212	      0.94300964	     -0.08922847	     -6.47549930	      5.72799719	    -12.75548735	     -9.82770466	     10.30064780	     -2.44329441	     -3.74080461	     -4.52036188	    -10.38805281	    -17.61744015	     22.27620050	     -8.67514146	    -12.93142013	      4.05428591	     -8.48509842
      0.09000000	      5.65042088	     -3.41696432	      4.57491404	      1.16086576	      0.94297790	     -0.08929773	     -6.43110872	      5.70254377	    -12.67541983	     -9.85622554	     10.29163111	     -2.48759164	     -3.71665008	     -4.50051268	    -10.46888549	    -17.62252817	     22.29110706	     -8.61730582	    -12.89836916	      4.03666550	     -8.44614121
      0.10000000	      5.65618416	     -3.42170009	      4.55588218	      1.16087375	      0.94299459	     -0.08942005	     -6.43138435	      5.69730124	    -12.64465239	     -9.87708170	     10.28969611	     -2.49543637	     -3.72376712	     -4.49447767	    -10.47759697	    -17.62740001	     22.29240729	     -8.60383800	    -12.90347025	      4.04145960	     -8.47839475
      0.11000000	      5.66450139	     -3.41990068	      4.53408944	      1.16089620	      0.94301607	     -0.08952344	     -6.43885036	      5.68671333	    -12.59926895	     -9.89316767	     10.28892185	     -2.50427304	     -3.73572679	     -4.48310155	    -10.49321856	    -17.63189567	     22.29560652	     -8.58543772	    -12.90988875	      4.03517086	     -8.50539734
      0.12000000	      5.67782469	     -3.41763296	      4.51261821	      1.16093214	      0.94304594	     -0.08961567	     -6.45341836	      5.67688705	    -12.54908173	     -9.90693175	     10.29392006	     -2.51422093	     -3.75569629	     -4.47254332	    -10.51191614	    -17.63331217	     22.29410724	     -8.56479914	    -12.91858109	      4.02573465	     -8.53118608
      0.13000000	      5.69582589	     -3.41512756	      4.49335938	      1.16097498	      0.94308312	     -0.08970704	     -6.47400935	      5.66744516	    -12.50555405	     -9.91862769	     10.30445736	     -2.52574417	     -3.78108639	     -4.46184432	    -10.52857912	    -17.63414364	     22.28824985	     -8.54531660	    -12.93132834	      4.01560866	     -8.55761725
      0.14000000	      5.74281128	     -3.40256156	      4.46731350	      1.16105134	      0.94316965	     -0.08978317	     -6.54115494	      5.65077848	    -12.44919259	     -9.90474203	     10.34065661	     -2.56811079	     -3.85413395	     -4.44169404	    -10.55763246	    -17.61219199	     22.26197590	     -8.49606929	    -12.97477597	      3.98999925	     -8.55861653
      0.15000000	      5.75648395	     -3.40591962	      4.45805902	      1.16108219	      0.94319998	     -0.08989795	     -6.54833344	      5.64410579	    -12.43085780	     -9.92788282	     10.33836692	     -2.57531820	     -3.87045357	     -4.43692558	    -10.55972080	    -17.61558112	     22.25958824	     -8.49211482	    -12.98122160	      3.98982433	     -8.59377785
      0.16000000	      5.77728645	     -3.40051713	      4.45068670	      1.16111800	      0.94324197	     -0.09001925	     -6.57027471	      5.63030280	    -12.40415186	     -9.93787407	     10.34657579	     -2.58758798	     -3.89514798	     -4.42316848	    -10.56480800	    -17.61933347	     22.25324893	     -8.48892947	    -12.99620282	      3.97927851	     -8.63087549
      0.17000000	      5.78371805	     -3.40524808	      4.44579081	      1.16117287	      0.94326065	     -0.09015220	     -6.57844058	      5.62512258	    -12.40117331	     -9.94123035	     10.34743752	     -2.58905143	     -3.90385703	     -4.41939184	    -10.56329571	    -17.62523420	     22.25184948	     -8.48889602	    -12.98720697	      3.97942272	     -8.63423699
      0.18000000	      5.86207544	     -3.37964716	      4.43519051	      1.16124350	      0.94340194	     -0.09029665	     -6.69027642	      5.59741478	    -12.35830169	     -9.90096446	     10.37226859	     -2.62841659	     -4.02134750	     -4.37984615	    -10.56430293	    -17.57896808	     22.21454547	     -8.50305289	    -13.07017293	      3.95261682	     -8.65395795
      0.19000000	      5.86744710	     -3.38465432	      4.43264548	      1.16128329	      0.94341449	     -0.09045740	     -6.69491830	      5.59144114	    -12.35692856	     -9.90557997	     10.37001022	     -2.62876622	     -4.02803951	     -4.37447001	    -10.56371871	    -17.58388757	     22.21440426	     -8.50354815	    -13.06222597	      3.96004215	     -8.65638850
      0.20000000	      5.87288045	     -3.38889211	      4.42895136	      1.16131116	      0.94342598	     -0.09062751	     -6.70015172	      5.58388916	    -12.35678767	     -9.90727250	     10.36663572	     -2.62849983	     -4.03430130	     -4.36710288	    -10.56365588	    -17.58834911	     22.21433409	     -8.50451242	    -13.05744168	      3.97043032	     -8.65969073
      0.21000000	      5.87810006	     -3.39243845	      4.42512423	      1.16132974	      0.94343557	     -0.09080104	     -6.70614651	      5.57568030	    -12.35864894	     -9.90628915	     10.36210301	     -2.62749810	     -4.03989978	     -4.35881209	    -10.56404710	    -17.59265111	     22.21438630	     -8.50575241	    -13.05387934	      3.98225588	     -8.66178089
      0.22000000	      5.88286620	     -3.39561058	      4.42018154	      1.16133857	      0.94344388	     -0.09097327	     -6.71261349	      5.56717945	    -12.36268936	     -9.90291184	     10.35637245	     -2.62586079	     -4.04462893	     -4.34991916	    -10.56483452	    -17.59692999	     22.21461117	     -8.50711813	    -13.05121774	      3.99494223	     -8.66216923
      0.23000000	      5.94358783	     -3.40066107	      4.42516313	      1.16136804	      0.94354164	     -0.09114792	     -6.79723778	      5.56818679	    -12.40525337	     -9.86683394	     10.24434540	     -2.56746166	     -4.12032102	     -4.34950695	    -10.57259973	    -17.58171494	     22.22046250	     -8.54426977	    -13.11390426	      4.01324128	     -8.66718649
      0.24000000	      5.94554574	     -3.40304659	      4.41920903	      1.16136882	      0.94354522	     -0.09130501	     -6.80167651	      5.55984545	    -12.40613576	     -9.86196112	     10.24524060	     -2.56585030	     -4.12191680	     -4.34076774	    -10.57241406	    -17.58554928	     22.22050308	     -8.54457889	    -13.10866836	      4.02445902	     -8.66320880
      0.25000000	      5.94804631	     -3.40551065	      4.41423860	      1.16137548	      0.94354759	     -0.09144631	     -6.80666858	      5.55327111	    -12.40650095	     -9.85814867	     10.24549826	     -2.56470159	     -4.12418888	     -4.33379545	    -10.57341373	    -17.58919407	     22.22070182	     -8.54469051	    -13.10256807	      4.03263653	     -8.65832493
      0.26000000	      5.95138992	     -3.40783087	      4.41242579	      1.16139266	      0.94355136	     -0.09157731	     -6.81233013	      5.54788471	    -12.40448976	     -9.85603245	     10.24583192	     -2.56424889	     -4.12800816	     -4.32897172	    -10.57566625	    -17.59241878	     22.22105227	     -8.54450203	    -13.09510069	      4.03804993	     -8.65270553
      0.27000000	      5.95588469	     -3.40975731	      4.41459312	      1.16142323	      0.94355484	     -0.09169530	     -6.81911194	      5.54461756	    -12.39877003	     -9.85642765	     10.24664284	     -2.56462529	     -4.13374724	     -4.32607337	    -10.57898144	    -17.59493907	     22.22155116	     -8.54388037	    -13.08619468	      4.04048485	     -8.64715480
      0.28000000	      5.98944782	     -3.41314271	      4.38163110	      1.16149884	      0.94360570	     -0.09172277	     -6.88279760	      5.55421976	    -12.26193221	     -9.81076111	     10.27754593	     -2.58594254	     -4.19777287	     -4.32769540	    -10.64199069	    -17.56335246	     22.23504460	     -8.51946349	    -13.10959423	      4.03294722	     -8.59792289
      0.29000000	      5.99705788	     -3.41439608	      4.39270071	      1.16155431	      0.94360765	     -0.09182993	     -6.89042718	      5.55232107	    -12.25581338	     -9.82070287	     10.27587042	     -2.58740805	     -4.20671851	     -4.32804768	    -10.64346520	    -17.56723181	     22.23388158	     -8.51818120	    -13.09805777	      4.03367449	     -8.59587488
      0.30000000	      6.07683480	     -3.41712191	      4.38553416	      1.16163238	      0.94372546	     -0.09187832	     -7.00001085	      5.56658717	    -12.15089307	     -9.78639108	     10.27556958	     -2.64002728	     -4.32283540	     -4.33392584	    -10.67417893	    -17.52494238	     22.21828688	     -8.44668156	    -13.17520690	      4.03257335	     -8.57822807
      0.31000000	      6.08424113	     -3.41838772	      4.40045942	      1.16168325	      0.94372520	     -0.09196881	     -7.00595723	      5.56639390	    -12.14420502	     -9.79767366	     10.27442264	     -2.64084926	     -4.33196025	     -4.33601854	    -10.67648925	    -17.52552365	     22.21786215	     -8.44512670	    -13.16266659	      4.02895795	     -8.57895138
      0.32000000	      6.14729485	     -3.41268815	      4.39938287	      1.16173220	      0.94381786	     -0.09202604	     -7.08562254	      5.56618603	    -12.07852214	     -9.78307750	     10.28325089	     -2.65329734	     -4.43179384	     -4.32912720	    -10.68800684	    -17.47321459	     22.20667995	     -8.36901425	    -13.22254000	      4.01749114	     -8.58785120
